{"glyphs":{"0":{"ha":775,"x_min":0,"x_max":0,"o":"m 682 846 b 752 775 720 846 752 814 l 752 78 b 682 8 752 39 720 8 l 93 8 b 23 78 55 8 23 39 l 23 775 b 93 846 23 814 55 846 l 682 846 m 421 631 b 387 665 421 649 406 665 b 353 631 369 665 353 649 l 353 213 b 387 179 353 194 369 179 b 421 213 406 179 421 194 "},"1":{"ha":499,"x_min":0,"x_max":0,"o":"m 405 846 b 475 775 444 846 475 814 l 475 78 b 405 8 475 39 444 8 l 153 8 l 153 575 l 131 575 b 60 646 92 575 60 607 l 60 775 b 131 846 60 814 92 846 l 405 846 "},"2":{"ha":879,"x_min":0,"x_max":0,"o":"m 509 392 b 439 320 470 392 439 360 l 439 236 b 509 164 439 196 470 164 l 551 164 l 551 322 l 856 322 l 856 66 b 785 -6 856 27 824 -6 l 92 -6 b 22 66 53 -6 22 27 l 22 445 b 285 443 22 445 271 443 l 368 443 b 439 515 407 443 439 476 l 439 600 b 368 672 439 639 407 672 l 285 672 b 214 600 246 672 214 639 l 214 578 l 22 578 l 22 772 b 92 844 22 811 53 844 l 785 844 b 856 772 824 844 856 811 l 856 389 l 613 389 b 509 392 607 391 509 392 "},"3":{"ha":868,"x_min":0,"x_max":0,"o":"m 847 549 b 707 429 819 513 770 460 b 847 309 707 429 791 372 l 847 70 b 777 8 847 35 816 8 l 84 8 b 13 70 45 8 13 35 l 13 237 l 206 237 l 206 218 b 277 156 206 184 238 156 l 360 156 b 430 218 399 156 430 184 l 430 291 b 360 354 430 326 399 354 l 304 354 l 304 498 l 360 498 b 430 560 399 498 430 525 l 430 633 b 360 695 430 667 399 695 l 277 695 b 206 633 238 695 206 667 l 206 614 l 13 614 l 13 781 b 84 844 13 816 45 844 l 777 844 b 847 781 816 844 847 816 l 847 549 "},"4":{"ha":899,"x_min":0,"x_max":0,"o":"m 874 844 l 874 -424 l 794 -424 b 527 -188 769 -305 663 -211 l 527 174 l 223 174 l 223 175 l 92 176 b 17 233 50 177 16 202 l 26 788 b 103 844 26 819 61 844 l 374 841 l 366 392 l 522 392 l 522 844 "},"5":{"ha":879,"x_min":0,"x_max":0,"o":"m 440 587 l 440 526 b 510 457 440 488 472 457 l 594 457 b 857 458 607 457 857 458 l 857 93 b 786 23 857 55 825 23 l 93 23 b 23 93 55 23 23 55 l 23 340 l 328 340 l 328 187 l 369 187 b 440 256 408 187 440 218 l 440 338 b 369 408 440 376 408 408 b 266 405 369 408 272 407 l 23 405 l 23 774 b 93 844 23 812 55 844 l 786 844 b 857 774 825 844 857 812 l 857 587 "},"6":{"ha":881,"x_min":0,"x_max":0,"o":"m 440 584 l 440 537 b 443 537 441 537 442 537 l 786 537 b 857 467 825 537 857 506 l 857 73 b 786 1 857 33 825 1 l 93 1 b 23 73 55 1 23 33 l 23 778 b 93 850 23 818 55 850 l 786 850 b 857 778 825 850 857 818 l 857 584 m 467 190 b 496 161 467 174 480 161 b 526 190 513 161 526 174 l 526 347 b 496 377 526 363 513 377 b 467 347 480 377 467 363 "},"7":{"ha":933,"x_min":0,"x_max":0,"o":"m 817 846 b 910 775 868 846 910 814 l 910 78 b 817 8 910 39 868 8 l 489 8 l 489 846 l 817 846 m 60 510 l 60 844 l 464 844 l 464 510 "},"8":{"ha":876,"x_min":0,"x_max":0,"o":"m 855 524 b 761 427 799 506 761 469 b 855 330 761 384 799 347 l 855 71 b 784 9 855 37 823 9 l 91 9 b 20 71 52 9 20 37 l 20 334 b 102 427 69 353 102 387 b 20 519 102 466 69 501 l 20 782 b 91 845 20 817 52 845 l 784 845 b 855 782 823 845 855 817 l 855 524 m 532 305 b 461 376 532 344 500 376 l 414 376 b 343 305 375 376 343 344 l 343 234 b 414 164 343 196 375 164 l 461 164 b 532 234 500 164 532 196 m 532 590 b 461 661 532 629 500 661 l 414 661 b 343 590 375 661 343 629 l 343 520 b 414 449 343 481 375 449 l 461 449 b 532 520 500 449 532 481 "},"9":{"ha":892,"x_min":0,"x_max":0,"o":"m 809 850 b 867 765 848 851 866 806 l 867 52 b 797 1 867 11 836 2 l 75 0 b 21 37 36 0 22 -4 l 20 308 l 304 308 l 304 243 l 446 245 b 446 246 446 245 446 246 l 445 310 b 373 384 445 351 412 384 l 290 382 b 154 379 284 382 218 380 b 25 497 100 414 57 456 l 20 768 b 90 843 20 809 51 843 l 809 850 m 428 689 b 389 725 428 710 410 728 b 358 687 371 723 358 706 l 358 548 b 389 510 358 530 371 513 b 428 547 410 508 428 525 "},"\u0000":{"ha":0,"x_min":0,"x_max":0,"o":""},"\n":{"ha":0,"x_min":0,"x_max":0,"o":""},"\r":{"ha":0,"x_min":0,"x_max":0,"o":""}," ":{"ha":486,"x_min":0,"x_max":0,"o":""},"!":{"ha":383,"x_min":0,"x_max":0,"o":"m 23 284 l 23 850 l 360 850 l 360 284 m 23 16 l 23 229 l 360 229 l 360 16 "},"\"":{"ha":401,"x_min":0,"x_max":0,"o":"m 274 797 b 390 681 338 797 390 745 b 307 569 390 628 355 584 l 307 569 l 306 569 b 274 565 296 566 285 565 b 268 565 272 565 270 565 l 124 548 l 133 563 l 2 548 l 51 625 b 36 681 42 641 36 660 b 153 797 36 745 88 797 b 213 780 175 797 196 791 b 274 797 231 791 252 797 "},"“":{"ha":401,"x_min":0,"x_max":0,"o":"m 274 797 b 213 780 252 797 231 791 b 153 797 196 791 175 797 b 36 681 88 797 36 745 b 51 625 36 660 42 641 l 2 548 l 133 563 l 124 548 l 268 565 b 274 565 270 565 272 565 b 306 569 285 565 296 566 l 307 569 l 307 569 b 390 681 355 584 390 628 b 274 797 390 745 338 797 "},"#":{"ha":968,"x_min":0,"x_max":0,"o":"m 960 537 l 853 537 l 853 348 l 960 348 l 960 253 l 853 253 l 853 69 l 516 69 l 516 253 l 453 253 l 453 69 l 115 69 l 115 253 l 7 253 l 7 348 l 115 348 l 115 537 l 7 537 l 7 632 l 115 632 l 115 797 l 453 797 l 453 632 l 516 632 l 516 797 l 853 797 l 853 632 l 960 632 m 516 537 l 453 537 l 453 348 l 516 348 "},"$":{"ha":694,"x_min":0,"x_max":0,"o":"m 524 544 l 524 562 b 468 620 524 594 499 620 l 403 620 b 348 562 373 620 348 594 l 348 494 b 403 436 348 462 373 436 l 468 436 b 675 437 479 436 675 437 l 675 132 b 620 75 675 101 650 75 l 486 75 l 486 9 l 240 9 l 240 75 l 76 75 b 20 132 45 75 20 101 l 20 338 l 260 338 l 260 211 l 292 211 b 348 269 323 211 348 237 l 348 337 b 292 395 348 369 323 395 b 211 392 292 395 216 394 l 20 392 l 20 700 b 76 758 20 732 45 758 l 240 758 l 240 844 l 486 844 l 486 758 l 620 758 b 675 700 650 758 675 732 l 675 544 "},"%":{"ha":994,"x_min":0,"x_max":0,"o":"m 390 2 l 193 116 l 617 850 l 814 737 m 453 648 b 256 451 453 539 365 451 b 60 648 148 451 60 539 b 256 844 60 756 148 844 b 453 648 365 844 453 756 m 183 648 b 256 574 183 607 216 574 b 330 648 297 574 330 607 b 256 721 330 688 297 721 b 183 648 216 721 183 688 m 739 373 b 935 177 847 373 935 285 b 739 -19 935 69 847 -19 b 542 177 630 -19 542 69 b 739 373 542 285 630 373 m 739 104 b 812 177 779 104 812 136 b 739 250 812 217 779 250 b 665 177 698 250 665 217 b 739 104 665 136 698 104 "},"&":{"ha":797,"x_min":0,"x_max":0,"o":"m 717 231 b 796 177 748 205 776 186 l 796 -1 b 698 55 796 -1 756 21 b 641 -1 695 24 671 -1 l 78 -1 b 20 63 46 -1 20 28 l 20 411 b 127 476 54 463 127 476 b 20 655 83 516 44 597 l 20 787 b 78 851 20 822 46 851 l 641 851 b 699 787 673 851 699 822 l 699 527 b 610 482 663 492 610 482 b 674 397 633 462 655 430 l 706 436 l 796 327 m 379 157 b 436 225 409 157 434 187 b 296 347 379 267 328 309 b 283 301 288 335 283 319 l 283 229 b 341 157 283 190 309 157 l 379 157 m 436 520 l 436 592 b 379 664 436 631 410 664 l 341 664 b 299 641 324 664 310 655 b 434 500 329 610 377 558 b 436 520 435 506 436 513 "},"'":{"ha":279,"x_min":0,"x_max":0,"o":"m 153 797 b 269 681 217 797 269 745 b 185 569 269 628 234 584 l 185 569 l 185 569 b 153 565 175 566 164 565 b 147 565 151 565 149 565 l 2 548 l 51 625 b 36 681 42 641 36 660 b 153 797 36 745 88 797 "},"‘":{"ha":279,"x_min":0,"x_max":0,"o":"m 153 797 b 36 681 88 797 36 745 b 51 625 36 660 42 641 l 2 548 l 147 565 b 153 565 149 565 151 565 b 185 569 164 565 175 566 l 185 569 l 185 569 b 269 681 234 584 269 628 b 153 797 269 745 217 797 "},"(":{"ha":519,"x_min":0,"x_max":0,"o":"m 459 858 b 262 425 349 843 262 655 b 459 -8 262 195 349 7 l 459 -88 b 7 425 208 -80 7 146 b 459 937 7 703 208 930 l 459 858 "},")":{"ha":519,"x_min":0,"x_max":0,"o":"m 60 937 b 512 425 311 930 512 703 b 60 -88 512 146 311 -80 l 60 -9 b 261 425 172 3 261 192 b 60 859 261 657 172 847 l 60 937 "},"*":{"ha":425,"x_min":0,"x_max":0,"o":"m 417 648 l 276 648 l 383 541 l 331 489 l 241 579 l 241 469 l 164 469 l 164 585 l 76 505 l 27 560 l 124 648 l 8 648 l 8 722 l 98 722 l 42 778 l 94 830 l 164 761 l 164 851 l 241 851 l 241 755 l 329 835 l 379 780 l 315 722 l 417 722 "},"+":{"ha":594,"x_min":0,"x_max":0,"o":"m 585 599 l 585 384 l 394 384 l 394 231 l 200 231 l 200 384 l 10 384 l 10 599 l 200 599 l 200 749 l 394 749 l 394 599 "},",":{"ha":281,"x_min":0,"x_max":0,"o":"m 154 252 b 270 135 218 252 270 199 b 187 24 270 82 235 38 l 187 24 l 186 24 b 154 19 176 21 165 19 b 148 19 152 19 150 19 l 4 3 l 52 79 b 37 135 43 96 37 115 b 154 252 37 199 90 252 "},"-":{"ha":506,"x_min":0,"x_max":0,"o":"m 12 384 l 12 599 l 492 599 l 492 384 "},".":{"ha":251,"x_min":0,"x_max":0,"o":"m 126 11 b 10 127 62 11 10 63 b 126 243 10 191 62 243 b 242 127 190 243 242 191 b 126 11 242 63 190 11 "},"/":{"ha":710,"x_min":0,"x_max":0,"o":"m 257 7 l 60 112 l 453 853 l 651 748 "},":":{"ha":260,"x_min":0,"x_max":0,"o":"m 130 515 b 13 631 65 515 13 567 b 130 747 13 695 65 747 b 246 631 194 747 246 695 b 130 515 246 567 194 515 m 130 56 b 13 172 65 56 13 108 b 130 288 13 236 65 288 b 246 172 194 288 246 236 b 130 56 246 108 194 56 "},";":{"ha":283,"x_min":0,"x_max":0,"o":"m 153 515 b 36 631 88 515 36 567 b 153 747 36 695 88 747 b 269 631 217 747 269 695 b 153 515 269 567 217 515 m 153 288 b 269 172 217 288 269 236 b 185 60 269 119 234 75 l 185 60 l 185 60 b 153 56 175 57 164 56 b 147 56 151 56 149 56 l 2 39 l 51 116 b 36 172 42 132 36 151 b 153 288 36 236 88 288 "},"<":{"ha":663,"x_min":0,"x_max":0,"o":"m 580 244 b 584 129 609 214 611 162 l 505 29 b 405 24 479 -4 434 -6 b 74 392 405 24 77 377 b 83 501 53 425 56 473 l 394 829 b 493 824 422 860 467 857 l 573 724 b 568 609 599 691 597 639 l 402 433 l 580 244 "},"=":{"ha":513,"x_min":0,"x_max":0,"o":"m 16 506 l 16 673 l 496 673 l 496 506 m 16 310 l 16 476 l 496 476 l 496 310 "},">":{"ha":663,"x_min":0,"x_max":0,"o":"m 580 501 b 589 392 607 473 610 425 b 258 24 586 377 258 24 b 158 29 229 -6 184 -4 l 78 129 b 83 244 52 162 54 214 l 261 433 l 94 609 b 90 724 66 639 64 691 l 169 824 b 269 829 196 857 240 860 l 580 501 "},"?":{"ha":917,"x_min":0,"x_max":0,"o":"m 785 850 b 856 792 824 850 856 824 l 856 486 l 613 486 b 509 489 607 488 509 489 b 442 447 477 489 450 471 l 439 447 l 439 170 l 92 170 b 22 228 53 170 22 196 l 22 530 b 285 529 22 530 271 529 l 368 529 b 439 587 407 529 439 555 l 439 655 b 368 712 439 686 407 712 l 285 712 b 214 655 246 712 214 686 l 214 637 l 22 637 l 22 792 b 92 850 22 824 53 850 l 785 850 m 22 3 l 22 147 l 439 147 l 439 3 "},"@":{"ha":810,"x_min":0,"x_max":0,"o":"m 718 837 b 786 769 755 837 786 806 l 786 84 b 718 16 786 47 755 16 l 595 16 l 595 328 l 595 328 l 595 592 b 527 660 595 629 564 660 l 322 660 b 254 592 284 660 254 629 l 254 261 b 322 193 254 224 284 193 l 527 193 b 544 195 533 193 538 194 l 544 16 l 91 16 b 23 84 54 16 23 47 l 23 769 b 91 837 23 806 54 837 l 718 837 m 558 591 b 587 562 574 591 587 578 l 587 271 b 558 242 587 255 574 242 l 506 242 l 506 375 l 505 375 l 505 487 b 476 516 505 503 492 516 l 389 516 b 360 487 373 516 360 503 l 360 346 b 389 317 360 330 373 317 l 476 317 b 484 318 479 317 481 318 l 484 242 l 291 242 b 262 271 275 242 262 255 l 262 562 b 291 591 262 578 275 591 l 558 591 "},"A":{"ha":775,"x_min":0,"x_max":0,"o":"m 682 838 b 752 767 720 838 752 806 l 752 -426 l 674 -426 b 415 -162 650 -293 547 -188 l 415 192 l 360 192 l 360 -6 l 93 -6 b 23 65 55 -6 23 26 l 23 767 b 93 838 23 806 55 838 l 682 838 m 414 619 l 361 619 l 361 290 l 414 290 "},"À":{"ha":775,"x_min":0,"x_max":0,"o":"m 682 838 l 93 838 b 23 767 55 838 23 806 l 23 65 b 93 -6 23 26 55 -6 l 360 -6 l 360 192 l 415 192 l 415 -162 b 674 -426 547 -188 650 -293 l 752 -426 l 752 767 b 682 838 752 806 720 838 m 414 290 l 361 290 l 361 619 l 414 619 "},"Á":{"ha":775,"x_min":0,"x_max":0,"o":"m 682 838 b 752 767 720 838 752 806 l 752 -426 l 674 -426 b 415 -162 650 -293 547 -188 l 415 192 l 360 192 l 360 -6 l 93 -6 b 23 65 55 -6 23 26 l 23 767 b 93 838 23 806 55 838 l 682 838 m 414 619 l 361 619 l 361 290 l 414 290 "},"Â":{"ha":775,"x_min":0,"x_max":0,"o":"m 682 838 l 93 838 b 23 767 55 838 23 806 l 23 65 b 93 -6 23 26 55 -6 l 360 -6 l 360 192 l 415 192 l 415 -162 b 674 -426 547 -188 650 -293 l 752 -426 l 752 767 b 682 838 752 806 720 838 m 414 290 l 361 290 l 361 619 l 414 619 "},"Ã":{"ha":775,"x_min":0,"x_max":0,"o":"m 682 838 b 752 767 720 838 752 806 l 752 -426 l 674 -426 b 415 -162 650 -293 547 -188 l 415 192 l 360 192 l 360 -6 l 93 -6 b 23 65 55 -6 23 26 l 23 767 b 93 838 23 806 55 838 l 682 838 m 414 619 l 361 619 l 361 290 l 414 290 "},"Ä":{"ha":775,"x_min":0,"x_max":0,"o":"m 682 838 l 93 838 b 23 767 55 838 23 806 l 23 65 b 93 -6 23 26 55 -6 l 360 -6 l 360 192 l 415 192 l 415 -162 b 674 -426 547 -188 650 -293 l 752 -426 l 752 767 b 682 838 752 806 720 838 m 414 290 l 361 290 l 361 619 l 414 619 "},"Å":{"ha":775,"x_min":0,"x_max":0,"o":"m 682 838 b 752 767 720 838 752 806 l 752 -426 l 674 -426 b 415 -162 650 -293 547 -188 l 415 192 l 360 192 l 360 -6 l 93 -6 b 23 65 55 -6 23 26 l 23 767 b 93 838 23 806 55 838 l 682 838 m 414 619 l 361 619 l 361 290 l 414 290 "},"B":{"ha":853,"x_min":0,"x_max":0,"o":"m 755 483 b 852 283 815 432 852 361 b 539 5 852 129 711 5 b 17 3 527 5 17 3 l 17 306 l 111 306 l 111 535 l 17 535 l 17 838 b 540 838 17 838 520 838 b 818 620 693 838 818 741 b 755 483 818 568 794 520 m 513 285 b 481 316 513 302 499 316 b 450 285 464 316 450 302 l 450 184 b 481 153 450 167 464 153 b 513 184 499 153 513 167 m 513 669 b 481 700 513 686 499 700 b 450 669 464 700 450 686 l 450 568 b 481 537 450 551 464 537 b 513 568 499 537 513 551 "},"C":{"ha":774,"x_min":0,"x_max":0,"o":"m 682 839 b 752 769 720 839 752 808 l 752 454 l 476 454 l 476 554 l 445 554 b 374 483 406 554 374 522 l 374 346 b 445 275 374 307 406 275 l 476 275 l 476 394 l 752 394 l 752 72 b 682 1 752 33 720 1 l 93 1 b 23 72 55 1 23 33 l 23 769 b 93 839 23 808 55 839 l 682 839 "},"Ç":{"ha":774,"x_min":0,"x_max":0,"o":"m 682 839 l 93 839 b 23 769 55 839 23 808 l 23 72 b 93 1 23 33 55 1 l 682 1 b 752 72 720 1 752 33 l 752 394 l 476 394 l 476 275 l 445 275 b 374 346 406 275 374 307 l 374 483 b 445 554 374 522 406 554 l 476 554 l 476 454 l 752 454 l 752 769 b 682 839 752 808 720 839 "},"D":{"ha":863,"x_min":0,"x_max":0,"o":"m 540 849 b 851 623 693 849 851 744 b 851 288 851 570 851 368 b 538 8 851 133 711 8 b 16 1 526 8 16 1 l 16 302 l 110 302 l 110 548 l 16 548 l 16 838 b 540 849 16 838 520 849 m 481 491 b 454 517 481 505 469 517 l 422 517 b 396 491 408 517 396 505 l 396 347 b 422 320 396 332 408 320 l 454 320 b 481 347 469 320 481 332 "},"E":{"ha":801,"x_min":0,"x_max":0,"o":"m 481 550 b 413 500 449 550 422 529 l 594 500 l 594 332 l 411 332 b 481 272 416 298 446 272 l 788 272 l 788 68 b 718 -2 788 29 756 -2 l 129 -2 b 59 68 91 -2 59 29 l 59 534 l 7 534 l 7 835 l 120 835 b 129 836 123 835 126 836 l 718 836 b 788 765 756 836 788 804 l 788 550 l 481 550 "},"È":{"ha":801,"x_min":0,"x_max":0,"o":"m 481 550 l 788 550 l 788 765 b 718 836 788 804 756 836 l 129 836 b 120 835 126 836 123 835 l 7 835 l 7 534 l 59 534 l 59 68 b 129 -2 59 29 91 -2 l 718 -2 b 788 68 756 -2 788 29 l 788 272 l 481 272 b 411 332 446 272 416 298 l 594 332 l 594 500 l 413 500 b 481 550 422 529 449 550 "},"É":{"ha":801,"x_min":0,"x_max":0,"o":"m 481 550 b 413 500 449 550 422 529 l 594 500 l 594 332 l 411 332 b 481 272 416 298 446 272 l 788 272 l 788 68 b 718 -2 788 29 756 -2 l 129 -2 b 59 68 91 -2 59 29 l 59 534 l 7 534 l 7 835 l 120 835 b 129 836 123 835 126 836 l 718 836 b 788 765 756 836 788 804 l 788 550 l 481 550 "},"Ê":{"ha":801,"x_min":0,"x_max":0,"o":"m 481 550 l 788 550 l 788 765 b 718 836 788 804 756 836 l 129 836 b 120 835 126 836 123 835 l 7 835 l 7 534 l 59 534 l 59 68 b 129 -2 59 29 91 -2 l 718 -2 b 788 68 756 -2 788 29 l 788 272 l 481 272 b 411 332 446 272 416 298 l 594 332 l 594 500 l 413 500 b 481 550 422 529 449 550 "},"Ë":{"ha":801,"x_min":0,"x_max":0,"o":"m 481 550 b 413 500 449 550 422 529 l 594 500 l 594 332 l 411 332 b 481 272 416 298 446 272 l 788 272 l 788 68 b 718 -2 788 29 756 -2 l 129 -2 b 59 68 91 -2 59 29 l 59 534 l 7 534 l 7 835 l 120 835 b 129 836 123 835 126 836 l 718 836 b 788 765 756 836 788 804 l 788 550 l 481 550 "},"F":{"ha":785,"x_min":0,"x_max":0,"o":"m 482 550 b 415 500 451 550 424 528 l 637 500 l 637 331 l 413 331 l 413 115 l 413 115 l 413 -426 l 331 -426 b 61 -162 307 -293 199 -188 l 61 63 b 60 68 61 65 60 66 l 60 534 l 6 534 l 6 835 l 719 835 b 790 764 758 835 790 803 l 790 550 l 482 550 "},"G":{"ha":806,"x_min":0,"x_max":0,"o":"m 786 781 l 786 509 l 610 509 l 610 550 l 479 550 b 408 480 440 550 408 519 b 408 480 408 480 408 480 b 656 480 408 480 547 480 b 786 344 695 453 755 404 l 786 69 b 715 -2 786 30 754 -2 l 128 -2 b 57 69 89 -2 57 30 l 57 563 l 6 563 l 6 835 l 118 835 b 128 836 121 835 124 836 l 715 836 b 784 781 749 836 777 812 m 449 186 b 479 159 449 170 463 157 b 504 188 493 160 504 173 l 504 271 b 479 300 504 285 493 298 b 449 273 463 301 449 288 "},"H":{"ha":821,"x_min":0,"x_max":0,"o":"m 797 844 l 797 -426 l 718 -426 b 459 -162 695 -293 591 -188 l 459 417 l 361 417 l 361 1 l 24 1 l 24 840 l 361 840 l 361 515 l 459 515 l 459 844 "},"I":{"ha":508,"x_min":0,"x_max":0,"o":"m 423 563 l 423 277 l 493 277 l 493 5 l 423 5 l 423 1 l 85 1 l 85 5 l 14 5 l 14 277 l 85 277 l 85 563 l 14 563 l 14 836 l 85 836 l 85 840 l 423 840 l 423 836 l 493 836 l 493 563 "},"Ì":{"ha":508,"x_min":0,"x_max":0,"o":"m 493 563 l 493 836 l 423 836 l 423 840 l 85 840 l 85 836 l 14 836 l 14 563 l 85 563 l 85 277 l 14 277 l 14 5 l 85 5 l 85 1 l 423 1 l 423 5 l 493 5 l 493 277 l 423 277 l 423 563 "},"Í":{"ha":508,"x_min":0,"x_max":0,"o":"m 423 563 l 423 277 l 493 277 l 493 5 l 423 5 l 423 1 l 85 1 l 85 5 l 14 5 l 14 277 l 85 277 l 85 563 l 14 563 l 14 836 l 85 836 l 85 840 l 423 840 l 423 836 l 493 836 l 493 563 "},"Î":{"ha":508,"x_min":0,"x_max":0,"o":"m 493 563 l 493 836 l 423 836 l 423 840 l 85 840 l 85 836 l 14 836 l 14 563 l 85 563 l 85 277 l 14 277 l 14 5 l 85 5 l 85 1 l 423 1 l 423 5 l 493 5 l 493 277 l 423 277 l 423 563 "},"Ï":{"ha":508,"x_min":0,"x_max":0,"o":"m 423 563 l 423 277 l 493 277 l 493 5 l 423 5 l 423 1 l 85 1 l 85 5 l 14 5 l 14 277 l 85 277 l 85 563 l 14 563 l 14 836 l 85 836 l 85 840 l 423 840 l 423 836 l 493 836 l 493 563 "},"J":{"ha":753,"x_min":0,"x_max":0,"o":"m 672 839 b 733 775 711 838 734 814 l 723 64 b 662 0 723 24 701 -1 l 64 1 b -6 74 25 2 -7 35 l -3 294 l 304 289 b 373 329 332 289 373 329 l 377 511 l 376 566 l 235 566 l 235 839 l 672 839 "},"K":{"ha":969,"x_min":0,"x_max":0,"o":"m 75 840 l 412 840 l 412 1 l 14 1 l 14 273 l 75 273 l 75 567 l 14 567 l 14 839 l 75 839 m 971 219 l 971 -1 l 721 -1 l 721 2 l 718 -1 l 430 322 l 430 509 l 605 839 l 904 839 l 904 686 l 774 440 l 970 219 "},"L":{"ha":758,"x_min":0,"x_max":0,"o":"m 757 83 b 695 0 758 44 734 1 l 99 3 b 28 73 61 3 28 34 l 18 768 b 88 840 17 807 49 839 l 369 844 l 374 510 l 378 332 b 447 293 378 332 419 293 l 501 294 l 501 426 l 755 426 l 755 215 "},"M":{"ha":1076,"x_min":0,"x_max":0,"o":"m 1052 839 l 1052 -3 l 715 -3 l 715 360 l 665 312 l 665 -3 l 415 -3 l 415 316 l 361 365 l 361 -1 l 24 -1 l 24 843 l 361 843 l 361 841 l 541 669 l 715 839 "},"N":{"ha":982,"x_min":0,"x_max":0,"o":"m 958 838 l 958 -1 l 621 -1 l 621 11 l 396 300 l 396 -2 l 59 -2 l 59 569 l 5 569 l 5 842 l 396 842 l 396 837 l 621 560 l 621 838 "},"Ñ":{"ha":982,"x_min":0,"x_max":0,"o":"m 621 838 l 621 560 l 396 837 l 396 842 l 5 842 l 5 569 l 59 569 l 59 -2 l 396 -2 l 396 300 l 621 11 l 621 -1 l 958 -1 l 958 838 "},"O":{"ha":881,"x_min":0,"x_max":0,"o":"m 786 837 b 857 767 825 837 857 805 l 857 74 b 786 3 857 35 825 3 l 93 3 b 23 74 55 3 23 35 l 23 767 b 93 837 23 805 55 837 l 786 837 m 481 550 b 457 574 481 563 470 574 b 434 550 444 574 434 563 l 434 303 b 457 280 434 290 444 280 b 481 303 470 280 481 290 "},"Ò":{"ha":881,"x_min":0,"x_max":0,"o":"m 786 837 l 93 837 b 23 767 55 837 23 805 l 23 74 b 93 3 23 35 55 3 l 786 3 b 857 74 825 3 857 35 l 857 767 b 786 837 857 805 825 837 m 481 303 b 457 280 481 290 470 280 b 434 303 444 280 434 290 l 434 550 b 457 574 434 563 444 574 b 481 550 470 574 481 563 "},"Ó":{"ha":881,"x_min":0,"x_max":0,"o":"m 786 837 b 857 767 825 837 857 805 l 857 74 b 786 3 857 35 825 3 l 93 3 b 23 74 55 3 23 35 l 23 767 b 93 837 23 805 55 837 l 786 837 m 481 550 b 457 574 481 563 470 574 b 434 550 444 574 434 563 l 434 303 b 457 280 434 290 444 280 b 481 303 470 280 481 290 "},"Ô":{"ha":881,"x_min":0,"x_max":0,"o":"m 786 837 l 93 837 b 23 767 55 837 23 805 l 23 74 b 93 3 23 35 55 3 l 786 3 b 857 74 825 3 857 35 l 857 767 b 786 837 857 805 825 837 m 481 303 b 457 280 481 290 470 280 b 434 303 444 280 434 290 l 434 550 b 457 574 434 563 444 574 b 481 550 470 574 481 563 "},"Õ":{"ha":881,"x_min":0,"x_max":0,"o":"m 786 837 b 857 767 825 837 857 805 l 857 74 b 786 3 857 35 825 3 l 93 3 b 23 74 55 3 23 35 l 23 767 b 93 837 23 805 55 837 l 786 837 m 481 550 b 457 574 481 563 470 574 b 434 550 444 574 434 563 l 434 303 b 457 280 434 290 444 280 b 481 303 470 280 481 290 "},"Ö":{"ha":881,"x_min":0,"x_max":0,"o":"m 786 837 l 93 837 b 23 767 55 837 23 805 l 23 74 b 93 3 23 35 55 3 l 786 3 b 857 74 825 3 857 35 l 857 767 b 786 837 857 805 825 837 m 481 303 b 457 280 481 290 470 280 b 434 303 444 280 434 290 l 434 550 b 457 574 434 563 444 574 b 481 550 470 574 481 563 "},"Ø":{"ha":881,"x_min":0,"x_max":0,"o":"m 786 837 b 857 767 825 837 857 805 l 857 74 b 786 3 857 35 825 3 l 93 3 b 23 74 55 3 23 35 l 23 767 b 93 837 23 805 55 837 l 786 837 m 481 550 b 457 574 481 563 470 574 b 434 550 444 574 434 563 l 434 303 b 457 280 434 290 444 280 b 481 303 470 280 481 290 "},"P":{"ha":915,"x_min":0,"x_max":0,"o":"m 901 700 b 905 688 904 696 905 692 l 905 277 b 834 206 905 238 873 206 l 459 206 b 441 187 449 206 441 198 l 441 -426 l 363 -426 b 104 -162 339 -293 236 -188 l 104 547 b 85 565 104 557 95 565 l 17 565 b -1 583 7 565 -1 573 l -1 819 b 17 837 -1 829 7 837 l 104 837 l 104 840 l 441 840 l 441 839 l 748 839 b 758 836 752 839 755 838 b 901 700 802 805 851 761 m 504 662 b 466 700 504 683 487 700 b 427 662 444 700 427 683 l 427 389 b 466 350 427 368 444 350 b 504 389 487 350 504 368 "},"Q":{"ha":903,"x_min":0,"x_max":0,"o":"m 912 40 l 710 -114 l 620 3 l 91 3 b 23 74 54 3 23 35 l 23 767 b 91 837 23 805 54 837 l 762 837 b 830 767 799 837 830 805 l 830 148 m 466 550 b 443 574 466 563 456 574 b 420 550 431 574 420 563 l 420 303 b 443 280 420 290 431 280 b 466 303 456 280 466 290 "},"R":{"ha":943,"x_min":0,"x_max":0,"o":"m 558 -1 l 441 172 l 444 -426 l 366 -426 b 107 -162 343 -293 239 -188 l 104 547 b 85 565 104 557 95 565 l 17 565 b -1 583 7 565 -1 573 l -1 819 b 17 837 -1 829 7 837 l 104 837 l 104 840 l 441 840 l 441 839 l 748 839 b 758 836 752 839 755 838 b 901 700 802 805 851 761 b 905 688 904 696 905 692 l 905 277 b 834 206 905 238 873 206 l 802 206 l 943 0 m 504 662 b 466 700 504 683 487 700 b 427 662 444 700 427 683 l 427 389 b 466 350 427 368 444 350 b 504 389 487 350 504 368 "},"S":{"ha":821,"x_min":0,"x_max":0,"o":"m 736 844 b 802 772 772 844 802 811 l 802 480 l 498 480 l 498 672 l 476 672 b 409 600 439 672 409 639 l 409 515 b 476 443 409 476 439 443 l 554 443 b 668 444 560 443 613 444 b 802 293 710 412 761 364 l 802 66 b 736 -6 802 27 772 -6 l 83 -6 b 17 66 47 -6 17 27 l 17 322 l 304 322 l 304 164 l 343 164 b 409 236 380 164 409 196 l 409 320 b 343 392 409 360 380 392 b 245 389 343 392 251 391 l 175 389 b 17 541 117 410 60 478 l 17 772 b 83 844 17 811 47 844 l 736 844 "},"T":{"ha":736,"x_min":0,"x_max":0,"o":"m 739 836 l 739 545 l 617 545 l 617 582 l 536 582 l 536 2 l 199 2 l 199 582 l 118 582 l 118 545 l -5 545 l -5 836 "},"U":{"ha":864,"x_min":0,"x_max":0,"o":"m 776 836 b 841 765 811 836 841 804 l 841 73 b 776 2 841 34 811 2 l 138 2 b 73 73 102 2 73 34 l 73 592 l 1 592 l 1 836 l 405 836 l 405 227 l 515 227 l 515 836 l 776 836 "},"Ù":{"ha":864,"x_min":0,"x_max":0,"o":"m 776 836 l 515 836 l 515 227 l 405 227 l 405 836 l 1 836 l 1 592 l 73 592 l 73 73 b 138 2 73 34 102 2 l 776 2 b 841 73 811 2 841 34 l 841 765 b 776 836 841 804 811 836 "},"Ú":{"ha":864,"x_min":0,"x_max":0,"o":"m 776 836 b 841 765 811 836 841 804 l 841 73 b 776 2 841 34 811 2 l 138 2 b 73 73 102 2 73 34 l 73 592 l 1 592 l 1 836 l 405 836 l 405 227 l 515 227 l 515 836 l 776 836 "},"Û":{"ha":864,"x_min":0,"x_max":0,"o":"m 776 836 l 515 836 l 515 227 l 405 227 l 405 836 l 1 836 l 1 592 l 73 592 l 73 73 b 138 2 73 34 102 2 l 776 2 b 841 73 811 2 841 34 l 841 765 b 776 836 841 804 811 836 "},"Ü":{"ha":864,"x_min":0,"x_max":0,"o":"m 776 836 b 841 765 811 836 841 804 l 841 73 b 776 2 841 34 811 2 l 138 2 b 73 73 102 2 73 34 l 73 592 l 1 592 l 1 836 l 405 836 l 405 227 l 515 227 l 515 836 l 776 836 "},"V":{"ha":999,"x_min":0,"x_max":0,"o":"m 976 840 b 997 674 1014 826 1011 708 l 731 45 b 650 0 717 12 650 0 l 509 6 l 509 483 l 657 839 l 976 840 m 337 840 l 489 474 l 489 -2 l 359 -2 b 267 37 359 -2 281 3 l 1 666 b 23 839 -13 700 -15 825 "},"W":{"ha":1150,"x_min":0,"x_max":0,"o":"m 1065 838 b 1128 767 1099 838 1128 806 l 1128 74 b 1065 3 1128 35 1099 3 l 742 3 b 685 37 718 3 696 16 l 644 113 b 532 117 620 156 559 158 l 479 36 b 425 6 467 17 447 6 l 86 6 b 23 77 51 6 23 38 l 23 770 b 86 840 23 809 51 840 l 316 840 b 339 816 329 840 339 829 l 339 491 b 382 478 339 467 370 457 l 507 686 b 660 683 542 744 627 742 l 768 484 b 811 496 780 462 811 471 l 811 813 b 835 838 811 826 822 838 l 1065 838 "},"X":{"ha":999,"x_min":0,"x_max":0,"o":"m 1000 111 b 957 9 1032 79 978 29 b 936 1 952 4 944 1 l 730 -2 b 678 19 710 -2 692 6 l 521 181 b 476 181 509 193 489 193 l 320 19 b 268 -2 306 6 287 -2 l 61 1 b 41 9 54 1 46 4 b -2 111 20 29 -34 79 l 155 351 b 160 368 158 356 160 362 l 160 569 b 156 584 160 574 159 579 l -12 806 b 128 840 -37 850 75 840 l 381 840 b 442 805 406 840 430 826 l 472 753 b 526 753 484 733 514 733 l 556 805 b 617 840 568 826 591 840 l 747 839 b 969 839 788 839 894 841 b 1010 796 994 838 1024 816 l 843 585 b 838 567 840 580 838 574 l 838 368 b 843 351 838 362 840 356 l 1000 111 "},"Y":{"ha":929,"x_min":0,"x_max":0,"o":"m 897 836 b 937 773 921 835 951 803 b 661 372 937 773 706 461 l 661 -5 l 192 -5 l 192 372 b -85 787 191 378 -85 787 b 55 838 -110 852 3 838 l 308 837 b 369 787 334 837 357 818 l 399 711 b 453 711 411 680 441 680 l 483 787 b 544 837 496 818 519 837 l 674 836 b 897 836 715 836 822 838 "},"Ý":{"ha":929,"x_min":0,"x_max":0,"o":"m 897 836 b 674 836 822 838 715 836 l 544 837 b 483 787 519 837 496 818 l 453 711 b 399 711 441 680 411 680 l 369 787 b 308 837 357 818 334 837 l 55 838 b -85 787 3 838 -110 852 b 192 372 -85 787 191 378 l 192 -5 l 661 -5 l 661 372 b 937 773 706 461 937 773 b 897 836 951 803 921 835 "},"Ÿ":{"ha":929,"x_min":0,"x_max":0,"o":"m 897 836 b 937 773 921 835 951 803 b 661 372 937 773 706 461 l 661 -5 l 192 -5 l 192 372 b -85 787 191 378 -85 787 b 55 838 -110 852 3 838 l 308 837 b 369 787 334 837 357 818 l 399 711 b 453 711 411 680 441 680 l 483 787 b 544 837 496 818 519 837 l 674 836 b 897 836 715 836 822 838 "},"Z":{"ha":604,"x_min":0,"x_max":0,"o":"m 591 596 l 395 244 l 591 244 l 591 -1 l 12 -1 l 12 244 l 13 244 l 210 596 l 12 596 l 12 841 l 591 841 "},"[":{"ha":360,"x_min":0,"x_max":0,"o":"m 347 695 b 282 625 311 693 282 662 l 282 243 b 347 172 282 206 311 175 l 347 3 l 93 3 b 23 73 55 3 23 34 l 23 780 b 93 851 23 819 55 851 l 347 851 l 347 695 "},"\\":{"ha":690,"x_min":0,"x_max":0,"o":"m 429 4 l 60 757 l 261 855 l 630 102 "},"]":{"ha":390,"x_min":0,"x_max":0,"o":"m 296 851 b 367 780 335 851 367 819 l 367 73 b 296 3 367 34 335 3 l 11 3 l 11 172 l 14 172 b 84 243 53 172 84 204 l 84 625 b 14 696 84 664 53 696 l 11 696 l 11 851 l 296 851 "},"^":{"ha":621,"x_min":0,"x_max":0,"o":"m 562 478 l 385 361 l 311 474 l 237 361 l 60 478 l 306 851 l 349 787 "},"_":{"ha":710,"x_min":0,"x_max":0,"o":"m 11 22 l 11 196 l 698 196 l 698 22 "},"a":{"ha":775,"x_min":0,"x_max":0,"o":"m 682 838 b 752 767 720 838 752 806 l 752 -426 l 674 -426 b 415 -162 650 -293 547 -188 l 415 192 l 360 192 l 360 -6 l 93 -6 b 23 65 55 -6 23 26 l 23 767 b 93 838 23 806 55 838 l 682 838 m 414 619 l 361 619 l 361 290 l 414 290 "},"à":{"ha":775,"x_min":0,"x_max":0,"o":"m 682 838 l 93 838 b 23 767 55 838 23 806 l 23 65 b 93 -6 23 26 55 -6 l 360 -6 l 360 192 l 415 192 l 415 -162 b 674 -426 547 -188 650 -293 l 752 -426 l 752 767 b 682 838 752 806 720 838 m 414 290 l 361 290 l 361 619 l 414 619 "},"á":{"ha":775,"x_min":0,"x_max":0,"o":"m 682 838 b 752 767 720 838 752 806 l 752 -426 l 674 -426 b 415 -162 650 -293 547 -188 l 415 192 l 360 192 l 360 -6 l 93 -6 b 23 65 55 -6 23 26 l 23 767 b 93 838 23 806 55 838 l 682 838 m 414 619 l 361 619 l 361 290 l 414 290 "},"â":{"ha":775,"x_min":0,"x_max":0,"o":"m 682 838 l 93 838 b 23 767 55 838 23 806 l 23 65 b 93 -6 23 26 55 -6 l 360 -6 l 360 192 l 415 192 l 415 -162 b 674 -426 547 -188 650 -293 l 752 -426 l 752 767 b 682 838 752 806 720 838 m 414 290 l 361 290 l 361 619 l 414 619 "},"ã":{"ha":775,"x_min":0,"x_max":0,"o":"m 682 838 b 752 767 720 838 752 806 l 752 -426 l 674 -426 b 415 -162 650 -293 547 -188 l 415 192 l 360 192 l 360 -6 l 93 -6 b 23 65 55 -6 23 26 l 23 767 b 93 838 23 806 55 838 l 682 838 m 414 619 l 361 619 l 361 290 l 414 290 "},"ä":{"ha":775,"x_min":0,"x_max":0,"o":"m 682 838 l 93 838 b 23 767 55 838 23 806 l 23 65 b 93 -6 23 26 55 -6 l 360 -6 l 360 192 l 415 192 l 415 -162 b 674 -426 547 -188 650 -293 l 752 -426 l 752 767 b 682 838 752 806 720 838 m 414 290 l 361 290 l 361 619 l 414 619 "},"å":{"ha":775,"x_min":0,"x_max":0,"o":"m 682 838 b 752 767 720 838 752 806 l 752 -426 l 674 -426 b 415 -162 650 -293 547 -188 l 415 192 l 360 192 l 360 -6 l 93 -6 b 23 65 55 -6 23 26 l 23 767 b 93 838 23 806 55 838 l 682 838 m 414 619 l 361 619 l 361 290 l 414 290 "},"b":{"ha":853,"x_min":0,"x_max":0,"o":"m 755 483 b 852 283 815 432 852 361 b 539 5 852 129 711 5 b 17 3 527 5 17 3 l 17 306 l 111 306 l 111 535 l 17 535 l 17 838 b 540 838 17 838 520 838 b 818 620 693 838 818 741 b 755 483 818 568 794 520 m 513 285 b 481 316 513 302 499 316 b 450 285 464 316 450 302 l 450 184 b 481 153 450 167 464 153 b 513 184 499 153 513 167 m 513 669 b 481 700 513 686 499 700 b 450 669 464 700 450 686 l 450 568 b 481 537 450 551 464 537 b 513 568 499 537 513 551 "},"c":{"ha":774,"x_min":0,"x_max":0,"o":"m 682 839 b 752 769 720 839 752 808 l 752 454 l 476 454 l 476 554 l 445 554 b 374 483 406 554 374 522 l 374 346 b 445 275 374 307 406 275 l 476 275 l 476 394 l 752 394 l 752 72 b 682 1 752 33 720 1 l 93 1 b 23 72 55 1 23 33 l 23 769 b 93 839 23 808 55 839 l 682 839 "},"ç":{"ha":774,"x_min":0,"x_max":0,"o":"m 682 839 l 93 839 b 23 769 55 839 23 808 l 23 72 b 93 1 23 33 55 1 l 682 1 b 752 72 720 1 752 33 l 752 394 l 476 394 l 476 275 l 445 275 b 374 346 406 275 374 307 l 374 483 b 445 554 374 522 406 554 l 476 554 l 476 454 l 752 454 l 752 769 b 682 839 752 808 720 839 "},"d":{"ha":864,"x_min":0,"x_max":0,"o":"m 540 849 b 851 623 693 849 851 744 b 851 288 851 570 851 368 b 538 8 851 133 711 8 b 16 1 526 8 16 1 l 16 302 l 110 302 l 110 548 l 16 548 l 16 838 b 540 849 16 838 520 849 m 481 491 b 454 517 481 505 469 517 l 422 517 b 396 491 408 517 396 505 l 396 347 b 422 320 396 332 408 320 l 454 320 b 481 347 469 320 481 332 "},"e":{"ha":801,"x_min":0,"x_max":0,"o":"m 481 550 b 413 500 449 550 422 529 l 594 500 l 594 332 l 411 332 b 481 272 416 298 446 272 l 788 272 l 788 68 b 718 -2 788 29 756 -2 l 129 -2 b 59 68 91 -2 59 29 l 59 534 l 7 534 l 7 835 l 120 835 b 129 836 123 835 126 836 l 718 836 b 788 765 756 836 788 804 l 788 550 l 481 550 "},"è":{"ha":801,"x_min":0,"x_max":0,"o":"m 481 550 l 788 550 l 788 765 b 718 836 788 804 756 836 l 129 836 b 120 835 126 836 123 835 l 7 835 l 7 534 l 59 534 l 59 68 b 129 -2 59 29 91 -2 l 718 -2 b 788 68 756 -2 788 29 l 788 272 l 481 272 b 411 332 446 272 416 298 l 594 332 l 594 500 l 413 500 b 481 550 422 529 449 550 "},"é":{"ha":801,"x_min":0,"x_max":0,"o":"m 481 550 b 413 500 449 550 422 529 l 594 500 l 594 332 l 411 332 b 481 272 416 298 446 272 l 788 272 l 788 68 b 718 -2 788 29 756 -2 l 129 -2 b 59 68 91 -2 59 29 l 59 534 l 7 534 l 7 835 l 120 835 b 129 836 123 835 126 836 l 718 836 b 788 765 756 836 788 804 l 788 550 l 481 550 "},"ê":{"ha":801,"x_min":0,"x_max":0,"o":"m 481 550 l 788 550 l 788 765 b 718 836 788 804 756 836 l 129 836 b 120 835 126 836 123 835 l 7 835 l 7 534 l 59 534 l 59 68 b 129 -2 59 29 91 -2 l 718 -2 b 788 68 756 -2 788 29 l 788 272 l 481 272 b 411 332 446 272 416 298 l 594 332 l 594 500 l 413 500 b 481 550 422 529 449 550 "},"ë":{"ha":801,"x_min":0,"x_max":0,"o":"m 481 550 b 413 500 449 550 422 529 l 594 500 l 594 332 l 411 332 b 481 272 416 298 446 272 l 788 272 l 788 68 b 718 -2 788 29 756 -2 l 129 -2 b 59 68 91 -2 59 29 l 59 534 l 7 534 l 7 835 l 120 835 b 129 836 123 835 126 836 l 718 836 b 788 765 756 836 788 804 l 788 550 l 481 550 "},"f":{"ha":785,"x_min":0,"x_max":0,"o":"m 482 550 b 415 500 451 550 424 528 l 637 500 l 637 331 l 413 331 l 413 115 l 413 115 l 413 -426 l 331 -426 b 61 -162 307 -293 199 -188 l 61 63 b 60 68 61 65 60 66 l 60 534 l 6 534 l 6 835 l 719 835 b 790 764 758 835 790 803 l 790 550 l 482 550 "},"g":{"ha":806,"x_min":0,"x_max":0,"o":"m 786 781 l 786 509 l 610 509 l 610 550 l 479 550 b 408 480 440 550 408 519 b 408 480 408 480 408 480 b 656 480 408 480 547 480 b 786 344 695 453 755 404 l 786 69 b 715 -2 786 30 754 -2 l 128 -2 b 57 69 89 -2 57 30 l 57 563 l 6 563 l 6 835 l 118 835 b 128 836 121 835 124 836 l 715 836 b 784 781 749 836 777 812 m 449 186 b 479 159 449 170 463 157 b 504 188 493 160 504 173 l 504 271 b 479 300 504 285 493 298 b 449 273 463 301 449 288 "},"h":{"ha":821,"x_min":0,"x_max":0,"o":"m 797 844 l 797 -426 l 718 -426 b 459 -162 695 -293 591 -188 l 459 417 l 361 417 l 361 1 l 24 1 l 24 840 l 361 840 l 361 515 l 459 515 l 459 844 "},"i":{"ha":508,"x_min":0,"x_max":0,"o":"m 423 563 l 423 277 l 493 277 l 493 5 l 423 5 l 423 1 l 85 1 l 85 5 l 14 5 l 14 277 l 85 277 l 85 563 l 14 563 l 14 836 l 85 836 l 85 840 l 423 840 l 423 836 l 493 836 l 493 563 "},"ì":{"ha":508,"x_min":0,"x_max":0,"o":"m 493 563 l 493 836 l 423 836 l 423 840 l 85 840 l 85 836 l 14 836 l 14 563 l 85 563 l 85 277 l 14 277 l 14 5 l 85 5 l 85 1 l 423 1 l 423 5 l 493 5 l 493 277 l 423 277 l 423 563 "},"í":{"ha":508,"x_min":0,"x_max":0,"o":"m 423 563 l 423 277 l 493 277 l 493 5 l 423 5 l 423 1 l 85 1 l 85 5 l 14 5 l 14 277 l 85 277 l 85 563 l 14 563 l 14 836 l 85 836 l 85 840 l 423 840 l 423 836 l 493 836 l 493 563 "},"î":{"ha":508,"x_min":0,"x_max":0,"o":"m 493 563 l 493 836 l 423 836 l 423 840 l 85 840 l 85 836 l 14 836 l 14 563 l 85 563 l 85 277 l 14 277 l 14 5 l 85 5 l 85 1 l 423 1 l 423 5 l 493 5 l 493 277 l 423 277 l 423 563 "},"ï":{"ha":508,"x_min":0,"x_max":0,"o":"m 423 563 l 423 277 l 493 277 l 493 5 l 423 5 l 423 1 l 85 1 l 85 5 l 14 5 l 14 277 l 85 277 l 85 563 l 14 563 l 14 836 l 85 836 l 85 840 l 423 840 l 423 836 l 493 836 l 493 563 "},"j":{"ha":753,"x_min":0,"x_max":0,"o":"m 672 839 b 733 775 711 838 734 814 l 723 64 b 662 0 723 24 701 -1 l 64 1 b -6 74 25 2 -7 35 l -3 294 l 304 289 b 373 329 332 289 373 329 l 377 511 l 376 566 l 235 566 l 235 839 l 672 839 "},"k":{"ha":969,"x_min":0,"x_max":0,"o":"m 75 840 l 412 840 l 412 1 l 14 1 l 14 273 l 75 273 l 75 567 l 14 567 l 14 839 l 75 839 m 971 219 l 971 -1 l 721 -1 l 721 2 l 718 -1 l 430 322 l 430 509 l 605 839 l 904 839 l 904 686 l 774 440 l 970 219 "},"l":{"ha":758,"x_min":0,"x_max":0,"o":"m 757 83 b 695 0 758 44 734 1 l 99 3 b 28 73 61 3 28 34 l 18 768 b 88 840 17 807 49 839 l 369 844 l 374 510 l 378 332 b 447 293 378 332 419 293 l 501 294 l 501 426 l 755 426 l 755 215 "},"m":{"ha":1076,"x_min":0,"x_max":0,"o":"m 1052 839 l 1052 -3 l 715 -3 l 715 360 l 665 312 l 665 -3 l 415 -3 l 415 316 l 361 365 l 361 -1 l 24 -1 l 24 843 l 361 843 l 361 841 l 541 669 l 715 839 "},"n":{"ha":982,"x_min":0,"x_max":0,"o":"m 958 838 l 958 -1 l 621 -1 l 621 11 l 396 300 l 396 -2 l 59 -2 l 59 569 l 5 569 l 5 842 l 396 842 l 396 837 l 621 560 l 621 838 "},"ñ":{"ha":982,"x_min":0,"x_max":0,"o":"m 621 838 l 621 560 l 396 837 l 396 842 l 5 842 l 5 569 l 59 569 l 59 -2 l 396 -2 l 396 300 l 621 11 l 621 -1 l 958 -1 l 958 838 "},"o":{"ha":881,"x_min":0,"x_max":0,"o":"m 786 837 b 857 767 825 837 857 805 l 857 74 b 786 3 857 35 825 3 l 93 3 b 23 74 55 3 23 35 l 23 767 b 93 837 23 805 55 837 l 786 837 m 481 550 b 457 574 481 563 470 574 b 434 550 444 574 434 563 l 434 303 b 457 280 434 290 444 280 b 481 303 470 280 481 290 "},"ò":{"ha":881,"x_min":0,"x_max":0,"o":"m 786 837 l 93 837 b 23 767 55 837 23 805 l 23 74 b 93 3 23 35 55 3 l 786 3 b 857 74 825 3 857 35 l 857 767 b 786 837 857 805 825 837 m 481 303 b 457 280 481 290 470 280 b 434 303 444 280 434 290 l 434 550 b 457 574 434 563 444 574 b 481 550 470 574 481 563 "},"ó":{"ha":881,"x_min":0,"x_max":0,"o":"m 786 837 b 857 767 825 837 857 805 l 857 74 b 786 3 857 35 825 3 l 93 3 b 23 74 55 3 23 35 l 23 767 b 93 837 23 805 55 837 l 786 837 m 481 550 b 457 574 481 563 470 574 b 434 550 444 574 434 563 l 434 303 b 457 280 434 290 444 280 b 481 303 470 280 481 290 "},"ô":{"ha":881,"x_min":0,"x_max":0,"o":"m 786 837 l 93 837 b 23 767 55 837 23 805 l 23 74 b 93 3 23 35 55 3 l 786 3 b 857 74 825 3 857 35 l 857 767 b 786 837 857 805 825 837 m 481 303 b 457 280 481 290 470 280 b 434 303 444 280 434 290 l 434 550 b 457 574 434 563 444 574 b 481 550 470 574 481 563 "},"õ":{"ha":881,"x_min":0,"x_max":0,"o":"m 786 837 b 857 767 825 837 857 805 l 857 74 b 786 3 857 35 825 3 l 93 3 b 23 74 55 3 23 35 l 23 767 b 93 837 23 805 55 837 l 786 837 m 481 550 b 457 574 481 563 470 574 b 434 550 444 574 434 563 l 434 303 b 457 280 434 290 444 280 b 481 303 470 280 481 290 "},"ö":{"ha":881,"x_min":0,"x_max":0,"o":"m 786 837 l 93 837 b 23 767 55 837 23 805 l 23 74 b 93 3 23 35 55 3 l 786 3 b 857 74 825 3 857 35 l 857 767 b 786 837 857 805 825 837 m 481 303 b 457 280 481 290 470 280 b 434 303 444 280 434 290 l 434 550 b 457 574 434 563 444 574 b 481 550 470 574 481 563 "},"ø":{"ha":881,"x_min":0,"x_max":0,"o":"m 786 837 b 857 767 825 837 857 805 l 857 74 b 786 3 857 35 825 3 l 93 3 b 23 74 55 3 23 35 l 23 767 b 93 837 23 805 55 837 l 786 837 m 481 550 b 457 574 481 563 470 574 b 434 550 444 574 434 563 l 434 303 b 457 280 434 290 444 280 b 481 303 470 280 481 290 "},"p":{"ha":915,"x_min":0,"x_max":0,"o":"m 901 700 b 905 688 904 696 905 692 l 905 277 b 834 206 905 238 873 206 l 459 206 b 441 187 449 206 441 198 l 441 -426 l 363 -426 b 104 -162 339 -293 236 -188 l 104 547 b 85 565 104 557 95 565 l 17 565 b -1 583 7 565 -1 573 l -1 819 b 17 837 -1 829 7 837 l 104 837 l 104 840 l 441 840 l 441 839 l 748 839 b 758 836 752 839 755 838 b 901 700 802 805 851 761 m 504 662 b 466 700 504 683 487 700 b 427 662 444 700 427 683 l 427 389 b 466 350 427 368 444 350 b 504 389 487 350 504 368 "},"q":{"ha":903,"x_min":0,"x_max":0,"o":"m 912 40 l 710 -114 l 620 3 l 91 3 b 23 74 54 3 23 35 l 23 767 b 91 837 23 805 54 837 l 762 837 b 830 767 799 837 830 805 l 830 148 m 466 550 b 443 574 466 563 456 574 b 420 550 431 574 420 563 l 420 303 b 443 280 420 290 431 280 b 466 303 456 280 466 290 "},"r":{"ha":942,"x_min":0,"x_max":0,"o":"m 557 -1 l 440 172 l 443 -426 l 365 -426 b 106 -162 341 -293 238 -188 l 102 547 b 84 565 102 557 94 565 l 16 565 b -2 583 6 565 -2 573 l -2 819 b 16 837 -2 829 6 837 l 102 837 l 102 840 l 440 840 l 440 839 l 747 839 b 757 836 750 839 754 838 b 900 700 801 805 850 761 b 904 688 903 696 904 692 l 904 277 b 832 206 904 238 872 206 l 801 206 l 942 0 m 503 662 b 464 700 503 683 486 700 b 426 662 443 700 426 683 l 426 389 b 464 350 426 368 443 350 b 503 389 486 350 503 368 "},"s":{"ha":821,"x_min":0,"x_max":0,"o":"m 736 844 b 802 772 772 844 802 811 l 802 480 l 498 480 l 498 672 l 476 672 b 409 600 439 672 409 639 l 409 515 b 476 443 409 476 439 443 l 554 443 b 668 444 560 443 613 444 b 802 293 710 412 761 364 l 802 66 b 736 -6 802 27 772 -6 l 83 -6 b 17 66 47 -6 17 27 l 17 322 l 304 322 l 304 164 l 343 164 b 409 236 380 164 409 196 l 409 320 b 343 392 409 360 380 392 b 245 389 343 392 251 391 l 175 389 b 17 541 117 410 60 478 l 17 772 b 83 844 17 811 47 844 l 736 844 "},"t":{"ha":736,"x_min":0,"x_max":0,"o":"m 739 836 l 739 545 l 617 545 l 617 582 l 536 582 l 536 2 l 199 2 l 199 582 l 118 582 l 118 545 l -5 545 l -5 836 "},"u":{"ha":864,"x_min":0,"x_max":0,"o":"m 776 836 b 841 765 811 836 841 804 l 841 73 b 776 2 841 34 811 2 l 138 2 b 73 73 102 2 73 34 l 73 592 l 1 592 l 1 836 l 405 836 l 405 227 l 515 227 l 515 836 l 776 836 "},"ù":{"ha":864,"x_min":0,"x_max":0,"o":"m 776 836 l 515 836 l 515 227 l 405 227 l 405 836 l 1 836 l 1 592 l 73 592 l 73 73 b 138 2 73 34 102 2 l 776 2 b 841 73 811 2 841 34 l 841 765 b 776 836 841 804 811 836 "},"ú":{"ha":864,"x_min":0,"x_max":0,"o":"m 776 836 b 841 765 811 836 841 804 l 841 73 b 776 2 841 34 811 2 l 138 2 b 73 73 102 2 73 34 l 73 592 l 1 592 l 1 836 l 405 836 l 405 227 l 515 227 l 515 836 l 776 836 "},"û":{"ha":864,"x_min":0,"x_max":0,"o":"m 776 836 l 515 836 l 515 227 l 405 227 l 405 836 l 1 836 l 1 592 l 73 592 l 73 73 b 138 2 73 34 102 2 l 776 2 b 841 73 811 2 841 34 l 841 765 b 776 836 841 804 811 836 "},"ü":{"ha":864,"x_min":0,"x_max":0,"o":"m 776 836 b 841 765 811 836 841 804 l 841 73 b 776 2 841 34 811 2 l 138 2 b 73 73 102 2 73 34 l 73 592 l 1 592 l 1 836 l 405 836 l 405 227 l 515 227 l 515 836 l 776 836 "},"v":{"ha":999,"x_min":0,"x_max":0,"o":"m 976 840 b 997 674 1014 826 1011 708 l 731 45 b 650 0 717 12 650 0 l 509 6 l 509 483 l 657 839 l 976 840 m 337 840 l 489 474 l 489 -2 l 359 -2 b 267 37 359 -2 281 3 l 1 666 b 23 839 -13 700 -15 825 "},"w":{"ha":1150,"x_min":0,"x_max":0,"o":"m 1065 838 b 1128 767 1099 838 1128 806 l 1128 74 b 1065 3 1128 35 1099 3 l 742 3 b 685 37 718 3 696 16 l 644 113 b 532 117 620 156 559 158 l 479 36 b 425 6 467 17 447 6 l 86 6 b 23 77 51 6 23 38 l 23 770 b 86 840 23 809 51 840 l 316 840 b 339 816 329 840 339 829 l 339 491 b 382 478 339 467 370 457 l 507 686 b 660 683 542 744 627 742 l 768 484 b 811 496 780 462 811 471 l 811 813 b 835 838 811 826 822 838 l 1065 838 "},"x":{"ha":999,"x_min":0,"x_max":0,"o":"m 1000 111 b 957 9 1032 79 978 29 b 936 1 952 4 944 1 l 730 -2 b 678 19 710 -2 692 6 l 521 181 b 476 181 509 193 489 193 l 320 19 b 268 -2 306 6 287 -2 l 61 1 b 41 9 54 1 46 4 b -2 111 20 29 -34 79 l 155 351 b 160 368 158 356 160 362 l 160 569 b 156 584 160 574 159 579 l -12 806 b 128 840 -37 850 75 840 l 381 840 b 442 805 406 840 430 826 l 472 753 b 526 753 484 733 514 733 l 556 805 b 617 840 568 826 591 840 l 747 839 b 969 839 788 839 894 841 b 1010 796 994 838 1024 816 l 843 585 b 838 567 840 580 838 574 l 838 368 b 843 351 838 362 840 356 l 1000 111 "},"y":{"ha":969,"x_min":0,"x_max":0,"o":"m 937 836 b 978 773 961 835 991 803 b 701 372 978 773 746 461 l 701 -5 l 232 -5 l 232 372 b -44 787 232 378 -44 787 b 96 838 -69 852 43 838 l 349 837 b 410 787 374 837 397 818 l 439 711 b 494 711 451 680 482 680 l 524 787 b 585 837 536 818 559 837 l 714 836 b 937 836 756 836 862 838 "},"ý":{"ha":969,"x_min":0,"x_max":0,"o":"m 937 836 b 714 836 862 838 756 836 l 585 837 b 524 787 559 837 536 818 l 494 711 b 439 711 482 680 451 680 l 410 787 b 349 837 397 818 374 837 l 96 838 b -44 787 43 838 -69 852 b 232 372 -44 787 232 378 l 232 -5 l 701 -5 l 701 372 b 978 773 746 461 978 773 b 937 836 991 803 961 835 "},"ÿ":{"ha":969,"x_min":0,"x_max":0,"o":"m 937 836 b 978 773 961 835 991 803 b 701 372 978 773 746 461 l 701 -5 l 232 -5 l 232 372 b -44 787 232 378 -44 787 b 96 838 -69 852 43 838 l 349 837 b 410 787 374 837 397 818 l 439 711 b 494 711 451 680 482 680 l 524 787 b 585 837 536 818 559 837 l 714 836 b 937 836 756 836 862 838 "},"z":{"ha":604,"x_min":0,"x_max":0,"o":"m 591 596 l 395 244 l 591 244 l 591 -1 l 12 -1 l 12 244 l 13 244 l 210 596 l 12 596 l 12 841 l 591 841 "},"{":{"ha":494,"x_min":0,"x_max":0,"o":"m 482 694 b 416 623 446 691 416 661 l 416 241 b 482 171 416 204 446 173 l 482 1 l 228 1 b 158 71 189 1 158 33 l 158 348 b 60 432 109 392 60 432 b 158 574 92 456 129 519 l 158 778 b 228 849 158 817 189 849 l 482 849 l 482 694 "},"|":{"ha":272,"x_min":0,"x_max":0,"o":"m 24 11 l 24 850 l 248 850 l 248 11 "},"}":{"ha":494,"x_min":0,"x_max":0,"o":"m 337 574 b 434 432 365 519 402 456 b 337 348 434 432 385 392 l 337 71 b 266 1 337 33 305 1 l 12 1 l 12 171 b 78 241 49 173 78 204 l 78 623 b 12 694 78 661 49 691 l 12 849 l 266 849 b 337 778 305 849 337 817 l 337 574 "},"~":{"ha":954,"x_min":0,"x_max":0,"o":"m 868 707 b 938 637 906 707 938 676 l 938 331 b 868 260 938 292 906 260 l 450 260 l 450 225 b 379 154 450 186 418 154 l 85 154 b 14 225 46 154 14 186 l 14 331 b 14 496 14 331 14 496 b 85 566 14 535 46 566 l 503 566 l 503 637 b 573 707 503 676 535 707 l 868 707 "}," ":{"ha":563,"x_min":0,"x_max":0,"o":""},"­":{"ha":0,"x_min":0,"x_max":0,"o":""},"’":{"ha":279,"x_min":0,"x_max":0,"o":"m 153 797 b 269 681 217 797 269 745 b 185 569 269 628 234 584 l 185 569 l 185 569 b 153 565 175 566 164 565 b 147 565 151 565 149 565 l 2 548 l 51 625 b 36 681 42 641 36 660 b 153 797 36 745 88 797 "},"”":{"ha":401,"x_min":0,"x_max":0,"o":"m 274 797 b 390 681 338 797 390 745 b 307 569 390 628 355 584 l 307 569 l 306 569 b 274 565 296 566 285 565 b 268 565 272 565 270 565 l 124 548 l 133 563 l 2 548 l 51 625 b 36 681 42 641 36 660 b 153 797 36 745 88 797 b 213 780 175 797 196 791 b 274 797 231 791 252 797 "}}}
